<svg width="125" height="110" viewBox="0 0 125 110" fill="none" xmlns="http://www.w3.org/2000/svg">
<circle cx="5" cy="5" r="5" fill="#5340FF" fill-opacity="0.77"/>
<circle cx="5" cy="25" r="5" fill="#5340FF" fill-opacity="0.77"/>
<circle cx="5" cy="45" r="5" fill="#5340FF" fill-opacity="0.77"/>
<circle cx="5" cy="65" r="5" fill="#5340FF" fill-opacity="0.77"/>
<circle cx="5" cy="85" r="5" fill="#5340FF" fill-opacity="0.77"/>
<circle cx="5" cy="105" r="5" fill="#5340FF" fill-opacity="0.77"/>
<circle cx="28" cy="5" r="5" fill="#5340FF" fill-opacity="0.77"/>
<circle cx="28" cy="25" r="5" fill="#5340FF" fill-opacity="0.77"/>
<circle cx="28" cy="45" r="5" fill="#5340FF" fill-opacity="0.77"/>
<circle cx="28" cy="65" r="5" fill="#5340FF" fill-opacity="0.77"/>
<circle cx="28" cy="85" r="5" fill="#5340FF" fill-opacity="0.77"/>
<circle cx="28" cy="105" r="5" fill="#5340FF" fill-opacity="0.77"/>
<circle cx="51" cy="5" r="5" fill="#5340FF" fill-opacity="0.77"/>
<circle cx="51" cy="25" r="5" fill="#5340FF" fill-opacity="0.77"/>
<circle cx="51" cy="45" r="5" fill="#5340FF" fill-opacity="0.77"/>
<circle cx="51" cy="65" r="5" fill="#5340FF" fill-opacity="0.77"/>
<circle cx="51" cy="85" r="5" fill="#5340FF" fill-opacity="0.77"/>
<circle cx="51" cy="105" r="5" fill="#5340FF" fill-opacity="0.77"/>
<circle cx="74" cy="5" r="5" fill="#5340FF" fill-opacity="0.77"/>
<circle cx="74" cy="25" r="5" fill="#5340FF" fill-opacity="0.77"/>
<circle cx="74" cy="45" r="5" fill="#5340FF" fill-opacity="0.77"/>
<circle cx="74" cy="65" r="5" fill="#5340FF" fill-opacity="0.77"/>
<circle cx="74" cy="85" r="5" fill="#5340FF" fill-opacity="0.77"/>
<circle cx="74" cy="105" r="5" fill="#5340FF" fill-opacity="0.77"/>
<circle cx="97" cy="5" r="5" fill="#5340FF" fill-opacity="0.77"/>
<circle cx="97" cy="25" r="5" fill="#5340FF" fill-opacity="0.77"/>
<circle cx="97" cy="45" r="5" fill="#5340FF" fill-opacity="0.77"/>
<circle cx="97" cy="65" r="5" fill="#5340FF" fill-opacity="0.77"/>
<circle cx="97" cy="85" r="5" fill="#5340FF" fill-opacity="0.77"/>
<circle cx="97" cy="105" r="5" fill="#5340FF" fill-opacity="0.77"/>
<circle cx="120" cy="5" r="5" fill="#5340FF" fill-opacity="0.77"/>
<circle cx="120" cy="25" r="5" fill="#5340FF" fill-opacity="0.77"/>
<circle cx="120" cy="45" r="5" fill="#5340FF" fill-opacity="0.77"/>
<circle cx="120" cy="65" r="5" fill="#5340FF" fill-opacity="0.77"/>
<circle cx="120" cy="85" r="5" fill="#5340FF" fill-opacity="0.77"/>
<circle cx="120" cy="105" r="5" fill="#5340FF" fill-opacity="0.77"/>
</svg>
