<svg width="95" height="94" viewBox="0 0 95 94" fill="none" xmlns="http://www.w3.org/2000/svg">
<path d="M0 0L5.90054 82.2686L41.9706 94L78.0406 82.2686L83.9411 0H0Z" fill="#6F5FFF"/>
<path d="M83.9411 0L78.0406 82.2686L41.9706 94V0H83.9411Z" fill="#5340FF"/>
<path d="M68.1885 24.9688H26.9413L27.9429 38.7383H67.1868L64.7928 72.0785L41.9706 79.6245L19.1483 72.0785L18.3691 60.9531H29.502L29.7245 63.9824L41.9706 68.0028L54.2167 63.9824L55.2183 49.7539H17.5342L14.9735 13.9531H68.9676L68.1885 24.9688Z" fill="#ECECF1"/>
<path d="M67.1868 38.7383L64.7928 72.0785L41.9706 79.6245V68.0028L54.2167 63.9824L55.2183 49.7539H41.9706V38.7383H67.1868Z" fill="#E2E2E7"/>
<path d="M68.9676 13.9531L68.1885 24.9688H41.9706V13.9531H68.9676Z" fill="#E2E2E7"/>
</svg>
