<svg width="97" height="97" viewBox="0 0 97 97" fill="none" xmlns="http://www.w3.org/2000/svg">
<rect width="97" height="97" fill="#5E4CFF"/>
<path fill-rule="evenodd" clip-rule="evenodd" d="M68.7956 42.8027C68.44 42.9417 67.3542 43.2301 66.3823 43.4442C64.0122 43.9667 60.0779 47.5072 58.9993 50.0887C57.0696 54.7078 58.6604 60.7186 62.7221 64.1537C63.9282 65.1741 67.0981 67.0035 69.7656 68.2186C72.4331 69.4344 75.2707 71.0387 76.0706 71.7843C78.7879 74.3167 77.5942 77.6716 73.5926 78.7489C70.2416 79.651 66.9119 78.6312 64.3886 75.9295L62.565 73.9772L59.0542 75.8713C57.1233 76.9124 55.5422 77.9309 55.5409 78.1333C55.5403 78.3364 56.5445 79.6769 57.7738 81.1132C60.9736 84.8509 65.5901 86.7004 71.7671 86.7185C76.0538 86.7314 77.1182 86.4844 80.1408 84.7765C84.509 82.3088 86.2537 79.2592 86.1858 74.208C86.0991 67.7401 83.9981 65.3196 74.3815 60.6099C67.395 57.1878 65.7932 55.4567 67.1938 52.8402C68.7982 49.8423 72.1454 49.5364 75.0418 52.1244L77.1047 53.968L80.2248 52.028C81.9411 50.961 83.3456 49.7524 83.3456 49.3418C83.3456 48.4461 79.7017 44.9031 77.7552 43.9059C76.297 43.159 69.9027 42.3714 68.7956 42.8027ZM41.8277 59.9594C41.6117 78.8175 41.5677 78.9934 37.0204 78.9934C35.1224 78.9934 34.2895 78.5614 32.8403 76.8258L31.0303 74.6575L27.4788 76.8102L23.9267 78.963L25.1903 80.7381C27.3928 83.8304 30.1767 85.7103 33.6609 86.4579C40.3242 87.8863 46.2703 85.6482 48.8621 80.7349C50.3275 77.9568 50.3656 77.4453 50.3656 60.5265V43.168H46.1927H42.0204L41.8277 59.9594Z" fill="white"/>
</svg>
