<svg width="75" height="75" viewBox="0 0 75 75" fill="none" xmlns="http://www.w3.org/2000/svg">
<path d="M71 0H4C1.79086 0 0 1.79086 0 4V71C0 73.2091 1.79086 75 4 75H71C73.2091 75 75 73.2091 75 71V4C75 1.79086 73.2091 0 71 0Z" fill="#F8F8F8"/>
<path d="M26.3398 40.043H20.832V51H15.8906V22.5625H25.8906C29.1719 22.5625 31.7044 23.2982 33.4883 24.7695C35.2721 26.2409 36.1641 28.3698 36.1641 31.1562C36.1641 33.0573 35.7018 34.6523 34.7773 35.9414C33.8659 37.2174 32.5898 38.2005 30.9492 38.8906L37.3359 50.7461V51H32.043L26.3398 40.043ZM20.832 36.0781H25.9102C27.5768 36.0781 28.8789 35.6615 29.8164 34.8281C30.7539 33.9818 31.2227 32.8294 31.2227 31.3711C31.2227 29.8477 30.7865 28.6693 29.9141 27.8359C29.0547 27.0026 27.7656 26.5729 26.0469 26.5469H20.832V36.0781ZM52.4922 22.5625H57.4141V42.5039C57.4141 45.2253 56.5612 47.3867 54.8555 48.9883C53.1628 50.5898 50.9232 51.3906 48.1367 51.3906C45.168 51.3906 42.8763 50.6419 41.2617 49.1445C39.6471 47.6471 38.8398 45.5638 38.8398 42.8945H43.7617C43.7617 44.4049 44.1328 45.5443 44.875 46.3125C45.6302 47.0677 46.7174 47.4453 48.1367 47.4453C49.4648 47.4453 50.5195 47.0091 51.3008 46.1367C52.0951 45.2513 52.4922 44.0339 52.4922 42.4844V22.5625Z" fill="#5340FF"/>
</svg>
