<svg width="144" height="88" viewBox="0 0 144 88" fill="none" xmlns="http://www.w3.org/2000/svg">
<path fill-rule="evenodd" clip-rule="evenodd" d="M96.2 0.292521C95.9808 0.511424 95.9071 3.33693 95.9071 11.5058C95.9071 19.5655 95.8336 22.4266 95.6265 22.4266C95.4725 22.4266 94.4393 21.933 93.3308 21.3296C92.2222 20.7263 91.0928 20.2327 90.8208 20.2327C90.3305 20.2327 76.6474 27.9582 75.8261 28.6987C75.4343 29.0519 75.3989 29.8086 75.3989 37.8093V46.5347L76.1924 47.1219C77.8223 48.3278 90.3259 55.3352 90.8481 55.3352C91.46 55.3352 105.626 47.2423 106.1 46.622C106.339 46.3099 106.405 41.791 106.405 25.9417C106.405 6.98247 106.377 5.62761 105.978 5.15275C105.502 4.58648 97.3583 0 96.8292 0C96.6444 0 96.3612 0.131634 96.2 0.292521ZM7.77275 23.8848C3.81247 26.1587 0.433022 28.2095 0.262853 28.4418C0.0213941 28.7714 -0.032806 31.3253 0.0167554 40.0622C0.0724204 49.9014 0.126376 51.2891 0.461343 51.5C0.752364 51.6833 1.7934 51.1948 4.85595 49.4382C9.84407 46.5771 9.91829 46.5298 10.1419 46.0774C10.2428 45.8734 10.3824 43.1327 10.452 39.9869L10.5785 34.2676L12.6534 33.0517C13.9335 32.3016 15.009 31.8397 15.4611 31.8458C16.1857 31.8553 18.855 33.2738 19.917 34.2137C20.4563 34.691 20.4663 34.8014 20.4663 40.2372C20.4663 45.1557 20.5139 45.8307 20.8936 46.2792C21.2505 46.7007 28.8463 51.1999 29.8517 51.5851C30.0263 51.6521 30.3481 51.528 30.5668 51.3096C30.9226 50.9544 30.9645 49.7502 30.9645 39.8852C30.9645 31.4382 30.893 28.7645 30.6594 28.4593C30.2338 27.904 15.9548 19.7447 15.4137 19.7476C15.1713 19.7491 11.7328 21.6107 7.77275 23.8848ZM52.4683 20.1644C51.7798 20.436 38.6448 28.0861 38.2279 28.4586C37.836 28.8084 37.8006 29.5621 37.8006 37.5402C37.8006 45.5179 37.836 46.2719 38.2279 46.6222C38.9517 47.2694 52.6549 55.0914 53.0645 55.0914C53.5811 55.0914 54.0152 54.8586 61.3606 50.6424C64.8518 48.6384 67.9007 46.778 68.1356 46.5084C68.525 46.0615 68.5628 45.2649 68.5628 37.5402C68.5628 29.8154 68.525 29.0188 68.1356 28.572C67.783 28.1673 56.9345 21.7848 54.2315 20.3916C53.4244 19.9758 53.0643 19.9292 52.4683 20.1644ZM121.092 24.0089C117.285 26.204 113.962 28.189 113.706 28.4201C113.266 28.8182 113.241 29.2957 113.241 37.5355V46.2307L113.791 46.7168C114.578 47.4135 128.203 55.0934 128.631 55.0819C128.828 55.0765 131.021 53.9355 133.505 52.5462C138.378 49.8212 138.778 49.4246 137.501 48.586C137.13 48.343 133.855 46.4438 130.222 44.3657L123.617 40.5873V37.5538V34.5201L125.815 33.2386C127.023 32.5337 128.213 31.9518 128.459 31.9452C128.705 31.9389 129.941 32.5095 131.206 33.2133L133.505 34.4931L133.505 36.6421C133.505 38.9852 133.747 39.7341 134.502 39.7341C134.978 39.7341 142.711 35.4145 143.576 34.6654C143.936 34.3544 144.003 33.8666 144 31.591C143.998 30.1036 143.915 28.7599 143.817 28.6054C143.467 28.0581 129.199 19.9889 128.605 20.0033C128.279 20.0111 124.898 21.8135 121.092 24.0089ZM93.3435 33.3474L95.785 34.7615L95.8533 37.7086L95.9217 40.6558L93.3755 42.1418L90.8296 43.6275L88.4243 42.2393C87.1015 41.4755 85.9367 40.7367 85.8356 40.5973C85.7348 40.4576 85.6798 39.0974 85.7135 37.5743L85.775 34.8051L88.2165 33.3805C89.5593 32.5971 90.7129 31.9511 90.78 31.9447C90.8472 31.9386 92.0007 32.5698 93.3435 33.3474ZM127.062 34.8512C125.557 35.7326 125.457 35.9011 125.452 37.5633C125.448 39.0813 125.552 39.2236 127.463 40.3125L128.622 40.9734L129.782 40.3125C131.694 39.2229 131.796 39.0822 131.796 37.5489C131.796 36.7911 131.659 36.0027 131.491 35.7972C131.1 35.3177 129.001 34.1235 128.579 34.1396C128.401 34.1464 127.719 34.4665 127.062 34.8512ZM70.2719 52.6735C69.9362 52.8115 66.6522 54.646 62.9741 56.7502C58.1127 59.5316 56.1615 60.7758 55.8287 61.3075C55.4003 61.9917 55.3749 62.5826 55.4359 70.4843C55.4977 78.485 55.5262 78.9579 55.9803 79.4584C56.2438 79.7492 57.549 80.6026 58.8805 81.3554C60.749 82.4119 61.5942 82.7483 62.5854 82.8304C64.3089 82.973 65.4942 82.5428 66.3072 81.4787L66.9759 80.6039L67.0487 72.1137L67.1214 63.6233H65.889H64.6565V71.4348V79.2466L64.0572 79.8448C63.7276 80.1739 63.2124 80.4432 62.9121 80.4432C62.6118 80.4432 61.3435 79.8774 60.0935 79.1861L57.8205 77.9287L57.8249 70.2277L57.8293 62.5263L64.4466 58.7479C68.086 56.6698 71.1876 55.0054 71.3393 55.0492C71.4906 55.0929 74.4987 56.7863 78.0234 58.8123L84.4323 62.4958V70.2286V77.9612L77.825 81.7749L71.2179 85.5884L69.3561 84.5146L67.4945 83.4408L66.3255 83.9532C65.6824 84.2348 65.1556 84.5751 65.1548 84.7091C65.1519 85.1338 70.3973 88 71.1776 88C71.817 88 78.877 84.1468 84.5328 80.7106C87.1305 79.1325 86.9958 79.7073 86.9958 70.205C86.9958 62.2067 86.9799 61.9315 86.4838 61.2643C85.8949 60.4728 72.6181 52.7061 71.5575 52.5328C71.1862 52.4721 70.6076 52.5353 70.2719 52.6735ZM89.8305 60.1033C88.362 61.337 88.6962 63.5319 90.4646 64.2697C91.5562 64.7249 92.3433 64.5376 93.2832 63.5991C93.9412 62.9422 94.0017 62.754 93.8863 61.7304C93.6451 59.5933 91.4744 58.7223 89.8305 60.1033ZM92.8662 60.5652C94.5025 62.1987 92.3767 64.7375 90.3012 63.6284C89.2548 63.0692 89.2182 61.0744 90.2402 60.299C90.938 59.7698 92.1978 59.8975 92.8662 60.5652ZM90.4546 60.6169C90.365 60.7061 90.2917 61.3643 90.2917 62.0795C90.2917 63.0726 90.3782 63.3795 90.6579 63.3795C90.8613 63.3795 91.0242 63.1628 91.0242 62.892C91.0242 62.6211 91.187 62.4044 91.3904 62.4044C91.5938 62.4044 91.7566 62.6211 91.7566 62.892C91.7566 63.1601 91.9189 63.3795 92.1174 63.3795C92.3906 63.3795 92.4693 63.0977 92.4409 62.2216C92.4204 61.5846 92.2996 60.9267 92.1724 60.759C91.929 60.4384 90.7324 60.3392 90.4546 60.6169ZM91.7566 61.4294C91.7566 61.5634 91.5918 61.6731 91.3904 61.6731C91.189 61.6731 91.0242 61.5634 91.0242 61.4294C91.0242 61.2953 91.189 61.1856 91.3904 61.1856C91.5918 61.1856 91.7566 61.2953 91.7566 61.4294ZM72.2607 63.5028C71.5416 63.7047 70.6334 64.0974 70.2428 64.3753C68.3714 65.7058 68.1385 68.6636 69.7958 70.056C70.6993 70.8151 71.6212 71.084 74.9106 71.5484C77.9883 71.9828 78.7759 72.2724 78.969 73.041C79.1604 73.802 78.5117 74.7759 77.6541 75.0155C76.5334 75.3285 73.1435 75.229 72.2602 74.8573C71.6701 74.6086 71.3136 74.2164 70.9869 73.4556C70.5472 72.4311 70.4996 72.3989 69.4261 72.3989C68.3194 72.3989 68.3187 72.3994 68.3187 73.2682C68.3187 74.3108 68.6183 74.9411 69.6112 75.9891C70.7128 77.1511 72.3725 77.6331 75.2771 77.634C77.4675 77.6345 77.865 77.5631 79.1429 76.9388C81.1566 75.9552 82.0272 74.3346 81.6424 72.2865C81.2984 70.4551 79.5965 69.5848 75.1547 68.9696C72.2323 68.5649 71.4926 68.2271 71.4926 67.2978C71.4926 66.1314 72.3942 65.6946 74.7939 65.6985C77.0872 65.7021 77.918 66.0909 78.4744 67.4207C78.7989 68.1959 78.9014 68.2548 79.9266 68.2548C81.2767 68.2548 81.4703 67.9041 80.9175 66.4588C80.4405 65.2117 79.5235 64.2785 78.2549 63.7495C76.897 63.1833 73.8454 63.0577 72.2607 63.5028Z" fill="#5E4CFF"/>
</svg>
