<svg width="106" height="106" viewBox="0 0 106 106" fill="none" xmlns="http://www.w3.org/2000/svg">
<path d="M93.7332 55.996C92.78 54.7602 91.7457 53.524 90.6403 52.2926C91.4001 51.4108 92.1241 50.5274 92.8055 49.6442C99.8478 40.5129 101.847 32.2294 98.4355 26.3201C95.0238 20.4106 86.8513 18.0005 75.4211 19.5338C74.2161 19.6955 72.9862 19.9005 71.7365 20.1439C71.3113 18.9007 70.861 17.6964 70.3844 16.5379C65.9974 5.87327 59.8235 0 53 0C46.1764 0 40.0026 5.87327 35.6158 16.5379C35.1392 17.6964 34.6889 18.9007 34.2637 20.1439C33.014 19.9007 31.7838 19.6955 30.5791 19.5338C19.1502 18.0007 10.9766 20.4106 7.5647 26.3201C4.15283 32.2296 6.15234 40.5129 13.1947 49.6442C13.8758 50.5274 14.5998 51.4108 15.3598 52.2926C14.2543 53.524 13.2202 54.76 12.267 55.996C5.22463 65.1273 3.22512 73.4108 6.637 79.3201C9.3783 84.0681 15.1917 86.5569 23.2997 86.5569C25.2829 86.5569 27.4049 86.4078 29.6512 86.1064C31.0979 85.9122 32.5807 85.6563 34.0912 85.3447C34.5663 86.7699 35.0742 88.1456 35.6158 89.4623C40.0026 100.127 46.1764 106 53 106C59.8235 106 65.9974 100.127 70.3842 89.4621C70.9258 88.1454 71.4336 86.7697 71.9088 85.3445C73.4193 85.6561 74.902 85.9122 76.3488 86.1062C78.5957 86.4076 80.7165 86.5567 82.7003 86.5567C90.8074 86.5567 96.6221 84.0677 99.363 79.3199C102.775 73.4106 100.776 65.1273 93.7332 55.996ZM81.8076 25.2839C87.4848 25.2839 91.4974 26.725 93.0566 29.4254C95.0967 32.959 93.2125 38.9459 87.8872 45.851C87.3798 46.5089 86.8455 47.1673 86.289 47.8255C83.1754 44.8633 79.6706 41.9648 75.8575 39.2026C75.3308 34.603 74.5389 30.2077 73.5033 26.1211C76.5434 25.5601 79.3348 25.2839 81.8076 25.2839ZM61.245 67.9046C58.4532 69.5163 55.6978 70.9622 53.0019 72.2479C50.3042 70.9618 47.5482 69.5174 44.755 67.9046C41.6733 66.1254 38.7241 64.2422 35.9419 62.2862C35.7083 59.3153 35.582 56.2154 35.582 53C35.582 49.3981 35.74 45.9404 36.0307 42.648C38.5117 40.9444 41.118 39.2997 43.8271 37.7356C46.9408 35.9379 50.0084 34.3492 52.9998 32.9565C55.9914 34.3492 59.059 35.9379 62.1727 37.7356C64.8819 39.2997 67.488 40.9444 69.9691 42.648C70.2598 45.9404 70.4177 49.3981 70.4177 53C70.4177 56.2154 70.2914 59.3153 70.0579 62.2862C67.2758 64.2422 64.3267 66.1254 61.245 67.9046ZM69.1105 70.3914C68.6944 73.0352 68.1897 75.5395 67.61 77.8864C65.3063 77.2171 62.9062 76.4072 60.4308 75.4529C61.7404 74.7575 63.0483 74.0352 64.3505 73.2835C65.9724 72.3469 67.5597 71.3811 69.1105 70.3914ZM45.5688 75.4527C43.0929 76.4072 40.6934 77.2162 38.3896 77.8856C37.8101 75.5391 37.3054 73.035 36.8892 70.3914C38.4401 71.3811 40.0274 72.3469 41.6493 73.2833C42.9515 74.0352 44.2591 74.7575 45.5688 75.4527ZM29.4469 57.3361C27.4801 55.7067 25.6373 54.0467 23.9369 52.3712C25.6601 50.728 27.5167 49.1028 29.4918 47.5093C29.4125 49.3219 29.3711 51.1537 29.3711 53C29.3711 54.4552 29.3974 55.9011 29.4469 57.3361ZM37.0611 34.5552C37.4786 32.0805 37.9747 29.7349 38.5368 27.5314C40.7435 28.1482 43.0432 28.8968 45.416 29.779C43.8471 30.5978 42.2805 31.4569 40.7218 32.3569C39.4808 33.0732 38.2608 33.8072 37.0611 34.5552ZM60.5838 29.7788C62.9565 28.8966 65.2562 28.1478 67.4632 27.5312C68.0253 29.7349 68.5213 32.0805 68.9389 34.5552C67.7392 33.8072 66.5191 33.0732 65.2784 32.3569C63.7192 31.4567 62.1528 30.5976 60.5838 29.7788ZM76.5082 47.5093C78.4833 49.1028 80.3399 50.728 82.063 52.3712C80.3627 54.0467 78.5199 55.7067 76.5531 57.3361C76.6026 55.9011 76.6289 54.4552 76.6289 53C76.6289 51.1535 76.5875 49.3219 76.5082 47.5093ZM53 6.21094C57.4924 6.21094 62.2644 11.9256 65.6755 21.5927C61.5657 22.7478 57.3054 24.2792 53 26.1512C48.6946 24.2792 44.4343 22.748 40.3245 21.5927C43.7355 11.9256 48.5076 6.21094 53 6.21094ZM12.9434 29.4256C14.5027 26.7248 18.5136 25.2841 24.1924 25.2841C26.665 25.2841 29.4566 25.5603 32.4969 26.1215C31.4611 30.2081 30.6694 34.6034 30.1427 39.2028C26.3296 41.965 22.8248 44.8635 19.7112 47.8257C19.1547 47.1675 18.6204 46.5092 18.1129 45.8512C12.7875 38.9461 10.9033 32.9592 12.9434 29.4256ZM23.2647 80.3561C17.5875 80.3557 13.5748 78.9149 12.0157 76.2146C9.97558 72.681 11.8598 66.6941 17.185 59.789C17.9438 58.8049 18.7593 57.8199 19.6266 56.8365C22.7049 59.8629 26.199 62.8315 30.0191 65.6662C30.522 70.483 31.3116 75.0904 32.3673 79.3669C29.0156 80.0317 25.9526 80.3563 23.2647 80.3561ZM53 99.7891C48.4205 99.7891 43.5509 93.8493 40.1282 83.8392C44.3074 82.6243 48.6347 81.0246 53 79.0801C57.3652 81.0246 61.6926 82.6243 65.8717 83.8392C62.4491 93.8493 57.5795 99.7891 53 99.7891ZM93.9843 76.2146C91.6871 80.1938 84.0659 81.4362 73.6325 79.3669C74.6884 75.0904 75.4778 70.483 75.9807 65.6662C79.801 62.8315 83.2951 59.8629 86.3732 56.8365C87.2405 57.8199 88.056 58.8052 88.8147 59.789C94.1404 66.6941 96.0246 72.681 93.9843 76.2146Z" fill="#5340FF"/>
<path d="M53 62.5959C58.2997 62.5959 62.5959 58.2996 62.5959 53C62.5959 47.7003 58.2997 43.4041 53 43.4041C47.7003 43.4041 43.4041 47.7003 43.4041 53C43.4041 58.2996 47.7003 62.5959 53 62.5959Z" fill="#5340FF"/>
</svg>
