<svg width="547" height="413" viewBox="0 0 547 413" fill="none" xmlns="http://www.w3.org/2000/svg">
<path opacity="0.45" d="M120.887 367.164C163.717 367.164 198.438 360.577 198.438 352.451C198.438 344.325 163.717 337.738 120.887 337.738C78.0568 337.738 43.3361 344.325 43.3361 352.451C43.3361 360.577 78.0568 367.164 120.887 367.164Z" fill="#E6E6E6"/>
<path d="M410.619 105.537H124.675V293.764H410.619V105.537Z" fill="#E6E6E6"/>
<path d="M138.5 122.716C141.083 122.716 143.177 120.618 143.177 118.031C143.177 115.443 141.083 113.346 138.5 113.346C135.917 113.346 133.824 115.443 133.824 118.031C133.824 120.618 135.917 122.716 138.5 122.716Z" fill="#24285B"/>
<path d="M152.394 122.716C154.977 122.716 157.071 120.618 157.071 118.031C157.071 115.443 154.977 113.346 152.394 113.346C149.811 113.346 147.717 115.443 147.717 118.031C147.717 120.618 149.811 122.716 152.394 122.716Z" fill="#5340FF"/>
<path d="M165.495 122.716C168.078 122.716 170.172 120.618 170.172 118.031C170.172 115.443 168.078 113.346 165.495 113.346C162.912 113.346 160.818 115.443 160.818 118.031C160.818 120.618 162.912 122.716 165.495 122.716Z" fill="#FFD200"/>
<path opacity="0.08" d="M364.275 105.537L296.925 105.811L286.149 121.003L184.612 214.418L192.954 230.652L164.442 241.912H136.654L132.976 293.764H165.467L170.062 263.489C197.262 259.858 215.19 234.885 215.19 234.885L333.67 184.129L318.628 149.416L338.634 139.826L339.742 146.114C339.742 146.114 350.559 143.128 350.107 133.031C349.656 122.935 348.713 110.4 364.275 105.537Z" fill="black"/>
<path d="M308.699 67.2752C307.045 80.5497 300.207 107.975 272.132 120.195L276.235 127.045C276.235 127.045 315.304 114.715 324.727 83.2074C328.952 69.0287 326.258 62.8778 321.992 60.3845C320.696 59.6677 319.243 59.2823 317.763 59.2623C316.283 59.2423 314.821 59.5884 313.506 60.2699C312.192 60.9514 311.065 61.9473 310.227 63.1692C309.388 64.3912 308.864 65.8015 308.699 67.2752Z" fill="#5340FF"/>
<path opacity="0.2" d="M308.699 67.2752C307.045 80.5497 300.207 107.975 272.132 120.195L276.235 127.045C276.235 127.045 315.304 114.715 324.727 83.2074C328.952 69.0287 326.258 62.8778 321.992 60.3845C320.696 59.6677 319.243 59.2823 317.763 59.2623C316.283 59.2423 314.821 59.5884 313.506 60.2699C312.192 60.9514 311.065 61.9473 310.227 63.1692C309.388 64.3912 308.864 65.8015 308.699 67.2752Z" fill="white"/>
<path d="M312.282 46.2881L318.997 54.4939L324.904 48.1374L314.306 38.7124L312.282 46.2881Z" fill="#F4A28C"/>
<path d="M307.551 31.219C306.521 31.0586 305.467 31.1591 304.485 31.5111C303.504 31.8631 302.625 32.4555 301.931 33.2344C301.236 34.0133 300.747 34.9538 300.508 35.9704C300.269 36.987 300.288 38.0474 300.563 39.0549C301.807 43.8496 304.488 50.3841 309.602 48.1375C317.41 44.7127 313.308 34.4383 313.308 34.4383C311.747 32.8214 309.744 31.7016 307.551 31.219Z" fill="#F4A28C"/>
<path d="M317.93 95.4544L304.611 102.304C303.47 102.899 302.46 103.717 301.643 104.711C300.825 105.705 300.215 106.854 299.85 108.089C299.485 109.324 299.372 110.62 299.518 111.9C299.664 113.179 300.066 114.417 300.7 115.537L312.665 136.292L318.491 132.182L311.653 113.25C311.538 112.937 311.489 112.603 311.512 112.269C311.534 111.936 311.626 111.612 311.782 111.317C311.939 111.022 312.155 110.763 312.418 110.558C312.681 110.353 312.984 110.206 313.308 110.126L326.586 106.88L324.221 113.181C323.475 115.15 323.21 117.269 323.448 119.361C323.685 121.454 324.419 123.459 325.588 125.209L337.896 143.593L342.559 140.73L336.637 124.442C335.987 122.654 335.838 120.721 336.207 118.854C336.575 116.987 337.448 115.257 338.73 113.852L345.143 106.811L317.93 95.4544Z" fill="#24285B"/>
<path d="M446.967 262.667H366.969V313.354H446.967V262.667Z" fill="#F2F2F2"/>
<path opacity="0.08" d="M367.174 262.667H354.169V293.764H367.174V262.667Z" fill="black"/>
<path d="M297.582 32.9587C297.582 32.9587 295.421 39.9179 302.942 38.2055C310.464 36.4931 309.889 34.0958 309.889 34.0958C309.889 34.0958 310.464 42.3153 314.224 40.4933C317.985 38.6713 315.824 34.1917 314.224 31.1231C312.624 28.0544 311.681 27.1366 307.387 26.6845C303.093 26.2325 298.115 28.7394 297.582 32.9587Z" fill="#24285B"/>
<path d="M310.012 38.8905C310.012 38.8905 309.698 36.5479 311.954 37C314.21 37.4521 313.322 40.7125 311.954 40.9454C310.587 41.1783 310.012 38.8905 310.012 38.8905Z" fill="#F4A28C"/>
<path d="M111.766 216.994L115.116 227.062L107.171 232.117L104.299 214.665L111.766 216.994Z" fill="#F4A28C"/>
<path d="M101.578 204.938C101.994 203.981 102.643 203.143 103.465 202.5C104.286 201.857 105.255 201.43 106.283 201.257C107.311 201.085 108.366 201.172 109.352 201.511C110.338 201.85 111.224 202.43 111.93 203.198C115.308 206.815 119.383 212.582 114.774 215.706C107.704 220.501 101.222 211.596 101.222 211.596C100.678 209.391 100.802 207.073 101.578 204.938Z" fill="#F4A28C"/>
<path d="M106.747 211.117C106.747 211.117 104.928 209.596 104.108 211.747C103.287 213.898 106.487 214.952 107.444 213.856C108.402 212.761 106.747 211.117 106.747 211.117Z" fill="#F4A28C"/>
<path d="M317.575 52.7541L324.904 48.1375C324.904 48.1375 348.713 39.9864 356.234 47.4799C363.755 54.9733 364.288 83.2485 345.143 106.811L317.93 95.4544C317.93 95.4544 318.477 81.8922 313.951 78.4674C309.424 75.0426 303.858 64.7683 317.575 52.7541Z" fill="#DDD9FF"/>
<path d="M314.033 135.264C314.033 135.264 312.542 142.196 315.209 141.949C317.875 141.703 318.491 132.113 318.491 132.113L314.033 135.264Z" fill="#5340FF"/>
<path d="M338.032 143.278C338.032 143.278 336.542 150.196 339.208 149.963C341.875 149.731 342.477 140.127 342.477 140.127L338.032 143.278Z" fill="#5340FF"/>
<path d="M375.803 102.071C375.803 102.071 371.208 104.058 372.904 106.332C374.599 108.606 380.411 105.537 380.411 105.537L380.767 102.071H375.803Z" fill="#F4A28C"/>
<path d="M272.693 121.003C272.693 121.003 265.145 121.62 266.731 123.36C267.51 124.302 268.492 125.056 269.603 125.565C269.603 125.565 264.133 131.689 268.112 132.908C272.091 134.127 275.975 126.497 275.975 126.497L272.693 121.003Z" fill="#F4A28C"/>
<path d="M288.178 117.446L154.825 179.102L179.235 232.083L312.588 170.427L288.178 117.446Z" fill="#FFD200"/>
<path opacity="0.58" d="M277.209 139.283L213.215 168.741L217.212 177.455L281.206 147.996L277.209 139.283Z" fill="white"/>
<path opacity="0.58" d="M285.483 157.338L221.49 186.797L225.487 195.51L289.48 166.052L285.483 157.338Z" fill="white"/>
<path d="M194.24 209.5C202.638 209.5 209.446 202.68 209.446 194.267C209.446 185.853 202.638 179.033 194.24 179.033C185.841 179.033 179.033 185.853 179.033 194.267C179.033 202.68 185.841 209.5 194.24 209.5Z" fill="white"/>
<path d="M394.168 278.188L383.502 288.572L394.168 298.97" stroke="#A5A5A5" stroke-width="2.03" stroke-linecap="round" stroke-linejoin="round"/>
<path d="M417.238 278.188L427.904 288.572L417.238 298.97" stroke="#A5A5A5" stroke-width="2.03" stroke-linecap="round" stroke-linejoin="round"/>
<path opacity="0.58" d="M262.122 88.9336C262.122 88.9336 248.981 85.3992 246.15 73.1795C246.15 73.1795 266.457 68.9739 267.127 89.9884L262.122 88.9336Z" fill="#5340FF"/>
<path opacity="0.73" d="M263.722 87.6185C263.722 87.6185 254.492 73.1385 262.505 59.5352C262.505 59.5352 277.999 69.3027 271.216 87.6185H263.722Z" fill="#5340FF"/>
<path d="M266.088 87.6185C266.088 87.6185 270.861 72.2754 285.493 69.3027C285.493 69.3027 288.228 79.2483 276.085 87.6185H266.088Z" fill="#5340FF"/>
<path d="M409.853 278.188L399.625 298.97" stroke="#A5A5A5" stroke-width="2.03" stroke-linecap="round" stroke-linejoin="round"/>
<path opacity="0.63" d="M183.245 138.579H143.164V146.114H183.245V138.579Z" fill="#CECECE"/>
<path d="M105.393 230.131C105.393 230.131 81.9133 244.378 78.8364 277.804C78.5796 280.571 79.3235 283.337 80.9324 285.6C82.5414 287.863 84.9083 289.472 87.602 290.134L115.116 296.915L105.393 230.131Z" fill="#5340FF"/>
<path opacity="0.2" d="M105.393 230.131C105.393 230.131 81.9133 244.378 78.8364 277.804C78.5796 280.571 79.3235 283.337 80.9324 285.6C82.5414 287.863 84.9083 289.472 87.602 290.134L115.116 296.915L105.393 230.131Z" fill="white"/>
<path d="M256.57 87.3171L259.305 105.537H276.057L278.45 87.3171H256.57Z" fill="#24285B"/>
<path d="M107.745 208.5C107.745 208.5 111.492 219.268 104.942 218.596C98.3916 217.925 101.988 213.295 98.7335 208.5C95.4789 203.705 97.2019 200.472 102.152 196.267C104.436 194.335 105.968 193.445 106.87 192.417C107.254 191.962 107.747 191.612 108.303 191.399C108.858 191.187 109.459 191.119 110.048 191.203C110.637 191.286 111.195 191.518 111.67 191.877C112.145 192.235 112.521 192.709 112.764 193.253C114.46 197.39 114.473 202.925 107.745 208.5Z" fill="#24285B"/>
<path opacity="0.08" d="M410.619 155.292H350.531V249.94H410.619V155.292Z" fill="black"/>
<path d="M110.312 267.8L64.9733 279.506L73.3493 312.062L118.688 300.357L110.312 267.8Z" fill="#FFD200"/>
<path opacity="0.08" d="M91.7456 272.051L96.9421 293.764L95.5883 305.723L107.745 302.572L111.369 292.873L99.6908 269.982L91.7456 272.051Z" fill="black"/>
<path d="M99.9643 237.131C101.08 234.652 102.717 232.443 104.763 230.655C106.809 228.868 109.217 227.544 111.82 226.775C121.858 223.747 140.921 217.418 146.555 226.775C154.268 239.652 142.452 290.216 142.452 290.216L108.716 292.832C108.716 292.832 90.1046 259.351 99.9643 237.131Z" fill="#5340FF"/>
<path d="M142.398 290.257L137.953 348.355H130.938L124.675 303.216L109.168 292.873L142.398 290.257Z" fill="#24285B"/>
<path d="M109.168 292.873L99.4856 348.355H107.007L123.253 302.271L109.168 292.873Z" fill="#24285B"/>
<path d="M126.412 234.515C125.957 233.089 125.842 231.576 126.075 230.098C126.308 228.619 126.884 227.216 127.756 226C128.628 224.785 129.772 223.79 131.096 223.097C132.42 222.404 133.888 222.031 135.383 222.007C139.676 221.87 144.613 222.61 148.401 225.679C156.839 232.528 184.503 237.186 209.474 214.295L214.274 221.679C214.274 221.679 185.912 258.666 141.495 248.036C138.118 247.269 134.986 245.67 132.383 243.383C129.78 241.096 127.789 238.193 126.589 234.939C126.521 234.802 126.466 234.652 126.412 234.515Z" fill="#5340FF"/>
<path opacity="0.2" d="M126.412 234.515C125.957 233.089 125.842 231.576 126.075 230.098C126.308 228.619 126.884 227.216 127.756 226C128.628 224.785 129.772 223.79 131.096 223.097C132.42 222.404 133.888 222.031 135.383 222.007C139.676 221.87 144.613 222.61 148.401 225.679C156.839 232.528 184.503 237.186 209.474 214.295L214.274 221.679C214.274 221.679 185.912 258.666 141.495 248.036C138.118 247.269 134.986 245.67 132.383 243.383C129.78 241.096 127.789 238.193 126.589 234.939C126.521 234.802 126.466 234.652 126.412 234.515Z" fill="white"/>
<path opacity="0.08" d="M114.733 225.884C114.733 225.884 98.9523 276.804 144.517 280.174L142.398 290.257L108.662 292.873C100.904 279.183 96.9692 263.652 97.2703 247.913C97.2703 247.913 97.5574 234.926 106.692 229.186C109.108 227.526 111.849 226.401 114.733 225.884Z" fill="black"/>
<path d="M100.853 348.355L96.1899 351.794C96.0129 351.92 95.8808 352.1 95.8126 352.307C95.7444 352.515 95.7438 352.738 95.8108 352.945C95.8778 353.153 96.009 353.334 96.1853 353.461C96.3616 353.589 96.574 353.658 96.7916 353.657H104.614C104.885 353.653 105.143 353.544 105.335 353.352C105.527 353.16 105.636 352.901 105.639 352.629V348.355H100.853Z" fill="#5340FF"/>
<path d="M137.762 348.355L142.152 351.794C142.323 351.927 142.448 352.111 142.51 352.319C142.572 352.528 142.567 352.75 142.496 352.956C142.425 353.161 142.292 353.339 142.115 353.465C141.938 353.591 141.726 353.658 141.509 353.657H135.943C135.155 353.653 134.4 353.337 133.844 352.777C133.288 352.217 132.976 351.46 132.976 350.67V348.355H137.762Z" fill="#5340FF"/>
<path d="M463.596 136.867H364.275V239.036H463.596V136.867Z" fill="#F2F2F2"/>
<path d="M443.412 162.074H382.216V165.745H443.412V162.074Z" fill="#A5A5A5"/>
<path d="M443.412 185.266H382.216V188.938H443.412V185.266Z" fill="#A5A5A5"/>
<path d="M443.412 208.459H382.216V212.13H443.412V208.459Z" fill="#A5A5A5"/>
<path d="M440.239 155.292H440.226C437.265 155.292 434.865 157.697 434.865 160.663V167.156C434.865 170.122 437.265 172.526 440.226 172.526H440.239C443.2 172.526 445.6 170.122 445.6 167.156V160.663C445.6 157.697 443.2 155.292 440.239 155.292Z" fill="#24285B"/>
<path d="M415.994 178.485H415.98C413.019 178.485 410.619 180.889 410.619 183.855V190.349C410.619 193.314 413.019 195.719 415.98 195.719H415.994C418.954 195.719 421.354 193.314 421.354 190.349V183.855C421.354 180.889 418.954 178.485 415.994 178.485Z" fill="#5340FF"/>
<path d="M399.583 201.692H399.57C396.609 201.692 394.209 204.096 394.209 207.062V213.555C394.209 216.521 396.609 218.925 399.57 218.925H399.583C402.544 218.925 404.944 216.521 404.944 213.555V207.062C404.944 204.096 402.544 201.692 399.583 201.692Z" fill="#FFD200"/>
<path d="M335.516 244.57H223.422V270.16H335.516V244.57Z" fill="white"/>
<path d="M335.516 244.57H297.294V270.16H335.516V244.57Z" fill="#24285B"/>
<path d="M213.015 219.775C213.015 219.775 218.868 221.692 220.113 213.062L210.171 215.404L213.015 219.775Z" fill="#F4A28C"/>
<path opacity="0.08" d="M329.144 100.126C329.144 100.126 341.041 97.8518 345.143 81.4128C349.246 64.9737 340.508 51.9184 348.945 49.9046C357.382 47.8909 360.883 69.3301 360.883 69.3301C360.883 69.3301 361.211 86.0979 345.143 106.838L329.144 100.126Z" fill="black"/>
<path d="M354.415 46.0141C361.417 48.5073 372.357 53.4664 379.741 61.864C381.836 64.2526 383.387 67.0693 384.287 70.1185C385.187 73.1677 385.413 76.3765 384.951 79.5223L381.642 102.071H373.779L374.134 81.5223C374.153 79.3505 373.472 77.2305 372.194 75.4762C370.916 73.7219 369.107 72.4267 367.037 71.7822C358.545 69.1794 345.513 63.3983 345.499 52.439C345.484 51.3592 345.73 50.2918 346.215 49.3275C346.701 48.3632 347.411 47.5303 348.286 46.8997C349.161 46.2691 350.175 45.8593 351.242 45.7052C352.309 45.551 353.398 45.6569 354.415 46.0141Z" fill="#5340FF"/>
<path opacity="0.2" d="M354.415 46.0141C361.417 48.5073 372.357 53.4664 379.741 61.864C381.836 64.2526 383.387 67.0693 384.287 70.1185C385.187 73.1677 385.413 76.3765 384.951 79.5223L381.642 102.071H373.779L374.134 81.5223C374.153 79.3505 373.472 77.2305 372.194 75.4762C370.916 73.7219 369.107 72.4267 367.037 71.7822C358.545 69.1794 345.513 63.3983 345.499 52.439C345.484 51.3592 345.73 50.2918 346.215 49.3275C346.701 48.3632 347.411 47.5303 348.286 46.8997C349.161 46.2691 350.175 45.8593 351.242 45.7052C352.309 45.551 353.398 45.6569 354.415 46.0141Z" fill="white"/>
<path opacity="0.08" d="M335.038 225.884H283.989V232.104H335.038V225.884Z" fill="black"/>
</svg>
